<svg id="visual" viewBox="0 0 900 200" width="900" height="200" xmlns="http://www.w3.org/2000/svg" xmlns:xlink="http://www.w3.org/1999/xlink" version="1.1"><rect x="0" y="0" width="900" height="200" fill="#ff0051"></rect><path d="M0 117L8.3 119C16.7 121 33.3 125 50 120.7C66.7 116.3 83.3 103.7 100 104.5C116.7 105.3 133.3 119.7 150 119.5C166.7 119.3 183.3 104.7 200 104.7C216.7 104.7 233.3 119.3 250 128C266.7 136.7 283.3 139.3 300 136.3C316.7 133.3 333.3 124.7 350 121.5C366.7 118.3 383.3 120.7 400 123.8C416.7 127 433.3 131 450 128.8C466.7 126.7 483.3 118.3 500 117C516.7 115.7 533.3 121.3 550 128C566.7 134.7 583.3 142.3 600 146.5C616.7 150.7 633.3 151.3 650 149.2C666.7 147 683.3 142 700 139.3C716.7 136.7 733.3 136.3 750 133.8C766.7 131.3 783.3 126.7 800 124.8C816.7 123 833.3 124 850 122.5C866.7 121 883.3 117 891.7 115L900 113L900 0L891.7 0C883.3 0 866.7 0 850 0C833.3 0 816.7 0 800 0C783.3 0 766.7 0 750 0C733.3 0 716.7 0 700 0C683.3 0 666.7 0 650 0C633.3 0 616.7 0 600 0C583.3 0 566.7 0 550 0C533.3 0 516.7 0 500 0C483.3 0 466.7 0 450 0C433.3 0 416.7 0 400 0C383.3 0 366.7 0 350 0C333.3 0 316.7 0 300 0C283.3 0 266.7 0 250 0C233.3 0 216.7 0 200 0C183.3 0 166.7 0 150 0C133.3 0 116.7 0 100 0C83.3 0 66.7 0 50 0C33.3 0 16.7 0 8.3 0L0 0Z" fill="#ff0051"></path><path d="M0 72L8.3 73.2C16.7 74.3 33.3 76.7 50 78.7C66.7 80.7 83.3 82.3 100 84.2C116.7 86 133.3 88 150 89.3C166.7 90.7 183.3 91.3 200 96.5C216.7 101.7 233.3 111.3 250 117.2C266.7 123 283.3 125 300 123.3C316.7 121.7 333.3 116.3 350 109.2C366.7 102 383.3 93 400 90.3C416.7 87.7 433.3 91.3 450 90.2C466.7 89 483.3 83 500 80.2C516.7 77.3 533.3 77.7 550 82C566.7 86.3 583.3 94.7 600 99.3C616.7 104 633.3 105 650 108.2C666.7 111.3 683.3 116.7 700 115.8C716.7 115 733.3 108 750 99.8C766.7 91.7 783.3 82.3 800 80.8C816.7 79.3 833.3 85.7 850 93.8C866.7 102 883.3 112 891.7 117L900 122L900 0L891.7 0C883.3 0 866.7 0 850 0C833.3 0 816.7 0 800 0C783.3 0 766.7 0 750 0C733.3 0 716.7 0 700 0C683.3 0 666.7 0 650 0C633.3 0 616.7 0 600 0C583.3 0 566.7 0 550 0C533.3 0 516.7 0 500 0C483.3 0 466.7 0 450 0C433.3 0 416.7 0 400 0C383.3 0 366.7 0 350 0C333.3 0 316.7 0 300 0C283.3 0 266.7 0 250 0C233.3 0 216.7 0 200 0C183.3 0 166.7 0 150 0C133.3 0 116.7 0 100 0C83.3 0 66.7 0 50 0C33.3 0 16.7 0 8.3 0L0 0Z" fill="#ff463d"></path><path d="M0 84L8.3 87.3C16.7 90.7 33.3 97.3 50 93.2C66.7 89 83.3 74 100 68.7C116.7 63.3 133.3 67.7 150 71.7C166.7 75.7 183.3 79.3 200 78.2C216.7 77 233.3 71 250 71.2C266.7 71.3 283.3 77.7 300 79.2C316.7 80.7 333.3 77.3 350 77.8C366.7 78.3 383.3 82.7 400 87.8C416.7 93 433.3 99 450 97C466.7 95 483.3 85 500 81C516.7 77 533.3 79 550 81.3C566.7 83.7 583.3 86.3 600 88.5C616.7 90.7 633.3 92.3 650 89.2C666.7 86 683.3 78 700 71.8C716.7 65.7 733.3 61.3 750 60C766.7 58.7 783.3 60.3 800 66C816.7 71.7 833.3 81.3 850 80.7C866.7 80 883.3 69 891.7 63.5L900 58L900 0L891.7 0C883.3 0 866.7 0 850 0C833.3 0 816.7 0 800 0C783.3 0 766.7 0 750 0C733.3 0 716.7 0 700 0C683.3 0 666.7 0 650 0C633.3 0 616.7 0 600 0C583.3 0 566.7 0 550 0C533.3 0 516.7 0 500 0C483.3 0 466.7 0 450 0C433.3 0 416.7 0 400 0C383.3 0 366.7 0 350 0C333.3 0 316.7 0 300 0C283.3 0 266.7 0 250 0C233.3 0 216.7 0 200 0C183.3 0 166.7 0 150 0C133.3 0 116.7 0 100 0C83.3 0 66.7 0 50 0C33.3 0 16.7 0 8.3 0L0 0Z" fill="#ff6b2b"></path><path d="M0 61L8.3 60.3C16.7 59.7 33.3 58.3 50 61.5C66.7 64.7 83.3 72.3 100 76C116.7 79.7 133.3 79.3 150 79.8C166.7 80.3 183.3 81.7 200 80.7C216.7 79.7 233.3 76.3 250 71.3C266.7 66.3 283.3 59.7 300 61.5C316.7 63.3 333.3 73.7 350 78.7C366.7 83.7 383.3 83.3 400 76C416.7 68.7 433.3 54.3 450 51.7C466.7 49 483.3 58 500 64.5C516.7 71 533.3 75 550 76.5C566.7 78 583.3 77 600 73.2C616.7 69.3 633.3 62.7 650 61.8C666.7 61 683.3 66 700 69C716.7 72 733.3 73 750 69.3C766.7 65.7 783.3 57.3 800 54.2C816.7 51 833.3 53 850 58.5C866.7 64 883.3 73 891.7 77.5L900 82L900 0L891.7 0C883.3 0 866.7 0 850 0C833.3 0 816.7 0 800 0C783.3 0 766.7 0 750 0C733.3 0 716.7 0 700 0C683.3 0 666.7 0 650 0C633.3 0 616.7 0 600 0C583.3 0 566.7 0 550 0C533.3 0 516.7 0 500 0C483.3 0 466.7 0 450 0C433.3 0 416.7 0 400 0C383.3 0 366.7 0 350 0C333.3 0 316.7 0 300 0C283.3 0 266.7 0 250 0C233.3 0 216.7 0 200 0C183.3 0 166.7 0 150 0C133.3 0 116.7 0 100 0C83.3 0 66.7 0 50 0C33.3 0 16.7 0 8.3 0L0 0Z" fill="#ff8b19"></path><path d="M0 48L8.3 44.5C16.7 41 33.3 34 50 35.3C66.7 36.7 83.3 46.3 100 46.7C116.7 47 133.3 38 150 36.8C166.7 35.7 183.3 42.3 200 46.7C216.7 51 233.3 53 250 55C266.7 57 283.3 59 300 55.3C316.7 51.7 333.3 42.3 350 41.2C366.7 40 383.3 47 400 48.5C416.7 50 433.3 46 450 42.5C466.7 39 483.3 36 500 35C516.7 34 533.3 35 550 36.8C566.7 38.7 583.3 41.3 600 45.7C616.7 50 633.3 56 650 53.7C666.7 51.3 683.3 40.7 700 40.8C716.7 41 733.3 52 750 53.3C766.7 54.7 783.3 46.3 800 42.5C816.7 38.7 833.3 39.3 850 43.2C866.7 47 883.3 54 891.7 57.5L900 61L900 0L891.7 0C883.3 0 866.7 0 850 0C833.3 0 816.7 0 800 0C783.3 0 766.7 0 750 0C733.3 0 716.7 0 700 0C683.3 0 666.7 0 650 0C633.3 0 616.7 0 600 0C583.3 0 566.7 0 550 0C533.3 0 516.7 0 500 0C483.3 0 466.7 0 450 0C433.3 0 416.7 0 400 0C383.3 0 366.7 0 350 0C333.3 0 316.7 0 300 0C283.3 0 266.7 0 250 0C233.3 0 216.7 0 200 0C183.3 0 166.7 0 150 0C133.3 0 116.7 0 100 0C83.3 0 66.7 0 50 0C33.3 0 16.7 0 8.3 0L0 0Z" fill="#ffaa03"></path><path d="M0 25L8.3 24.3C16.7 23.7 33.3 22.3 50 24.3C66.7 26.3 83.3 31.7 100 32.7C116.7 33.7 133.3 30.3 150 27.7C166.7 25 183.3 23 200 20.5C216.7 18 233.3 15 250 13.3C266.7 11.7 283.3 11.3 300 15.5C316.7 19.7 333.3 28.3 350 28.5C366.7 28.7 383.3 20.3 400 18.3C416.7 16.3 433.3 20.7 450 24.2C466.7 27.7 483.3 30.3 500 32.8C516.7 35.3 533.3 37.7 550 33.7C566.7 29.7 583.3 19.3 600 17.3C616.7 15.3 633.3 21.7 650 23.3C666.7 25 683.3 22 700 22.2C716.7 22.3 733.3 25.7 750 26C766.7 26.3 783.3 23.7 800 25C816.7 26.3 833.3 31.7 850 31.8C866.7 32 883.3 27 891.7 24.5L900 22L900 0L891.7 0C883.3 0 866.7 0 850 0C833.3 0 816.7 0 800 0C783.3 0 766.7 0 750 0C733.3 0 716.7 0 700 0C683.3 0 666.7 0 650 0C633.3 0 616.7 0 600 0C583.3 0 566.7 0 550 0C533.3 0 516.7 0 500 0C483.3 0 466.7 0 450 0C433.3 0 416.7 0 400 0C383.3 0 366.7 0 350 0C333.3 0 316.7 0 300 0C283.3 0 266.7 0 250 0C233.3 0 216.7 0 200 0C183.3 0 166.7 0 150 0C133.3 0 116.7 0 100 0C83.3 0 66.7 0 50 0C33.3 0 16.7 0 8.3 0L0 0Z" fill="#ffc800"></path></svg>