<svg id="visual" viewBox="0 0 900 150" width="900" height="150" xmlns="http://www.w3.org/2000/svg" xmlns:xlink="http://www.w3.org/1999/xlink" version="1.1"><rect x="0" y="0" width="900" height="150" fill="#ff0051"></rect><path d="M0 112L18.8 112C37.7 112 75.3 112 112.8 113.8C150.3 115.7 187.7 119.3 225.2 120.3C262.7 121.3 300.3 119.7 337.8 114.5C375.3 109.3 412.7 100.7 450.2 101.5C487.7 102.3 525.3 112.7 562.8 114.2C600.3 115.7 637.7 108.3 675.2 105.2C712.7 102 750.3 103 787.8 98.8C825.3 94.7 862.7 85.3 881.3 80.7L900 76L900 0L881.3 0C862.7 0 825.3 0 787.8 0C750.3 0 712.7 0 675.2 0C637.7 0 600.3 0 562.8 0C525.3 0 487.7 0 450.2 0C412.7 0 375.3 0 337.8 0C300.3 0 262.7 0 225.2 0C187.7 0 150.3 0 112.8 0C75.3 0 37.7 0 18.8 0L0 0Z" fill="#ff0051"></path><path d="M0 81L18.8 79C37.7 77 75.3 73 112.8 70.2C150.3 67.3 187.7 65.7 225.2 68.2C262.7 70.7 300.3 77.3 337.8 79C375.3 80.7 412.7 77.3 450.2 77C487.7 76.7 525.3 79.3 562.8 77.7C600.3 76 637.7 70 675.2 69C712.7 68 750.3 72 787.8 75.2C825.3 78.3 862.7 80.7 881.3 81.8L900 83L900 0L881.3 0C862.7 0 825.3 0 787.8 0C750.3 0 712.7 0 675.2 0C637.7 0 600.3 0 562.8 0C525.3 0 487.7 0 450.2 0C412.7 0 375.3 0 337.8 0C300.3 0 262.7 0 225.2 0C187.7 0 150.3 0 112.8 0C75.3 0 37.7 0 18.8 0L0 0Z" fill="#ff5038"></path><path d="M0 45L18.8 49.3C37.7 53.7 75.3 62.3 112.8 67C150.3 71.7 187.7 72.3 225.2 73C262.7 73.7 300.3 74.3 337.8 71.7C375.3 69 412.7 63 450.2 60.2C487.7 57.3 525.3 57.7 562.8 56.7C600.3 55.7 637.7 53.3 675.2 55.2C712.7 57 750.3 63 787.8 63.5C825.3 64 862.7 59 881.3 56.5L900 54L900 0L881.3 0C862.7 0 825.3 0 787.8 0C750.3 0 712.7 0 675.2 0C637.7 0 600.3 0 562.8 0C525.3 0 487.7 0 450.2 0C412.7 0 375.3 0 337.8 0C300.3 0 262.7 0 225.2 0C187.7 0 150.3 0 112.8 0C75.3 0 37.7 0 18.8 0L0 0Z" fill="#ff7b22"></path><path d="M0 47L18.8 46.5C37.7 46 75.3 45 112.8 42.8C150.3 40.7 187.7 37.3 225.2 37.5C262.7 37.7 300.3 41.3 337.8 45.3C375.3 49.3 412.7 53.7 450.2 53.8C487.7 54 525.3 50 562.8 46.8C600.3 43.7 637.7 41.3 675.2 39.8C712.7 38.3 750.3 37.7 787.8 39.2C825.3 40.7 862.7 44.3 881.3 46.2L900 48L900 0L881.3 0C862.7 0 825.3 0 787.8 0C750.3 0 712.7 0 675.2 0C637.7 0 600.3 0 562.8 0C525.3 0 487.7 0 450.2 0C412.7 0 375.3 0 337.8 0C300.3 0 262.7 0 225.2 0C187.7 0 150.3 0 112.8 0C75.3 0 37.7 0 18.8 0L0 0Z" fill="#ffa208"></path><path d="M0 32L18.8 30.5C37.7 29 75.3 26 112.8 22.7C150.3 19.3 187.7 15.7 225.2 15.5C262.7 15.3 300.3 18.7 337.8 20C375.3 21.3 412.7 20.7 450.2 19.3C487.7 18 525.3 16 562.8 15.8C600.3 15.7 637.7 17.3 675.2 18.3C712.7 19.3 750.3 19.7 787.8 20.3C825.3 21 862.7 22 881.3 22.5L900 23L900 0L881.3 0C862.7 0 825.3 0 787.8 0C750.3 0 712.7 0 675.2 0C637.7 0 600.3 0 562.8 0C525.3 0 487.7 0 450.2 0C412.7 0 375.3 0 337.8 0C300.3 0 262.7 0 225.2 0C187.7 0 150.3 0 112.8 0C75.3 0 37.7 0 18.8 0L0 0Z" fill="#ffc800"></path></svg>