<svg id="visual" viewBox="0 0 900 150" width="900" height="150" xmlns="http://www.w3.org/2000/svg" xmlns:xlink="http://www.w3.org/1999/xlink" version="1.1"><rect x="0" y="0" width="900" height="150" fill="#ffc800"></rect><path d="M0 88L8.3 89.5C16.7 91 33.3 94 50 90.7C66.7 87.3 83.3 77.7 100 78.2C116.7 78.7 133.3 89.3 150 89.2C166.7 89 183.3 78 200 78C216.7 78 233.3 89 250 95.5C266.7 102 283.3 104 300 101.8C316.7 99.7 333.3 93.3 350 91C366.7 88.7 383.3 90.3 400 92.7C416.7 95 433.3 98 450 96.5C466.7 95 483.3 89 500 88C516.7 87 533.3 91 550 95.8C566.7 100.7 583.3 106.3 600 109.5C616.7 112.7 633.3 113.3 650 111.8C666.7 110.3 683.3 106.7 700 104.5C716.7 102.3 733.3 101.7 750 99.7C766.7 97.7 783.3 94.3 800 93.2C816.7 92 833.3 93 850 91.8C866.7 90.7 883.3 87.3 891.7 85.7L900 84L900 0L891.7 0C883.3 0 866.7 0 850 0C833.3 0 816.7 0 800 0C783.3 0 766.7 0 750 0C733.3 0 716.7 0 700 0C683.3 0 666.7 0 650 0C633.3 0 616.7 0 600 0C583.3 0 566.7 0 550 0C533.3 0 516.7 0 500 0C483.3 0 466.7 0 450 0C433.3 0 416.7 0 400 0C383.3 0 366.7 0 350 0C333.3 0 316.7 0 300 0C283.3 0 266.7 0 250 0C233.3 0 216.7 0 200 0C183.3 0 166.7 0 150 0C133.3 0 116.7 0 100 0C83.3 0 66.7 0 50 0C33.3 0 16.7 0 8.3 0L0 0Z" fill="#ffc800"></path><path d="M0 54L8.3 54.8C16.7 55.7 33.3 57.3 50 58.8C66.7 60.3 83.3 61.7 100 63.2C116.7 64.7 133.3 66.3 150 67.3C166.7 68.3 183.3 68.7 200 72.3C216.7 76 233.3 83 250 87.3C266.7 91.7 283.3 93.3 300 92.2C316.7 91 333.3 87 350 81.7C366.7 76.3 383.3 69.7 400 67.7C416.7 65.7 433.3 68.3 450 67.5C466.7 66.7 483.3 62.3 500 60.2C516.7 58 533.3 58 550 61.2C566.7 64.3 583.3 70.7 600 74.2C616.7 77.7 633.3 78.3 650 80.8C666.7 83.3 683.3 87.7 700 87C716.7 86.3 733.3 80.7 750 74.3C766.7 68 783.3 61 800 60C816.7 59 833.3 64 850 70.2C866.7 76.3 883.3 83.7 891.7 87.3L900 91L900 0L891.7 0C883.3 0 866.7 0 850 0C833.3 0 816.7 0 800 0C783.3 0 766.7 0 750 0C733.3 0 716.7 0 700 0C683.3 0 666.7 0 650 0C633.3 0 616.7 0 600 0C583.3 0 566.7 0 550 0C533.3 0 516.7 0 500 0C483.3 0 466.7 0 450 0C433.3 0 416.7 0 400 0C383.3 0 366.7 0 350 0C333.3 0 316.7 0 300 0C283.3 0 266.7 0 250 0C233.3 0 216.7 0 200 0C183.3 0 166.7 0 150 0C133.3 0 116.7 0 100 0C83.3 0 66.7 0 50 0C33.3 0 16.7 0 8.3 0L0 0Z" fill="#a9d847"></path><path d="M0 63L8.3 65.5C16.7 68 33.3 73 50 69.8C66.7 66.7 83.3 55.3 100 51.3C116.7 47.3 133.3 50.7 150 53.7C166.7 56.7 183.3 59.3 200 58.3C216.7 57.3 233.3 52.7 250 52.8C266.7 53 283.3 58 300 59.2C316.7 60.3 333.3 57.7 350 58C366.7 58.3 383.3 61.7 400 65.5C416.7 69.3 433.3 73.7 450 72.2C466.7 70.7 483.3 63.3 500 60.3C516.7 57.3 533.3 58.7 550 60.3C566.7 62 583.3 64 600 65.8C616.7 67.7 633.3 69.3 650 67C666.7 64.7 683.3 58.3 700 53.7C716.7 49 733.3 46 750 45C766.7 44 783.3 45 800 49.2C816.7 53.3 833.3 60.7 850 60.2C866.7 59.7 883.3 51.3 891.7 47.2L900 43L900 0L891.7 0C883.3 0 866.7 0 850 0C833.3 0 816.7 0 800 0C783.3 0 766.7 0 750 0C733.3 0 716.7 0 700 0C683.3 0 666.7 0 650 0C633.3 0 616.7 0 600 0C583.3 0 566.7 0 550 0C533.3 0 516.7 0 500 0C483.3 0 466.7 0 450 0C433.3 0 416.7 0 400 0C383.3 0 366.7 0 350 0C333.3 0 316.7 0 300 0C283.3 0 266.7 0 250 0C233.3 0 216.7 0 200 0C183.3 0 166.7 0 150 0C133.3 0 116.7 0 100 0C83.3 0 66.7 0 50 0C33.3 0 16.7 0 8.3 0L0 0Z" fill="#51da8a"></path><path d="M0 46L8.3 45.5C16.7 45 33.3 44 50 46.3C66.7 48.7 83.3 54.3 100 57C116.7 59.7 133.3 59.3 150 59.7C166.7 60 183.3 61 200 60.3C216.7 59.7 233.3 57.3 250 53.7C266.7 50 283.3 45 300 46.3C316.7 47.7 333.3 55.3 350 59C366.7 62.7 383.3 62.3 400 56.8C416.7 51.3 433.3 40.7 450 38.7C466.7 36.7 483.3 43.3 500 48.2C516.7 53 533.3 56 550 57.2C566.7 58.3 583.3 57.7 600 54.8C616.7 52 633.3 47 650 46.3C666.7 45.7 683.3 49.3 700 51.5C716.7 53.7 733.3 54.3 750 51.7C766.7 49 783.3 43 800 40.7C816.7 38.3 833.3 39.7 850 43.8C866.7 48 883.3 55 891.7 58.5L900 62L900 0L891.7 0C883.3 0 866.7 0 850 0C833.3 0 816.7 0 800 0C783.3 0 766.7 0 750 0C733.3 0 716.7 0 700 0C683.3 0 666.7 0 650 0C633.3 0 616.7 0 600 0C583.3 0 566.7 0 550 0C533.3 0 516.7 0 500 0C483.3 0 466.7 0 450 0C433.3 0 416.7 0 400 0C383.3 0 366.7 0 350 0C333.3 0 316.7 0 300 0C283.3 0 266.7 0 250 0C233.3 0 216.7 0 200 0C183.3 0 166.7 0 150 0C133.3 0 116.7 0 100 0C83.3 0 66.7 0 50 0C33.3 0 16.7 0 8.3 0L0 0Z" fill="#00d3c4"></path><path d="M0 36L8.3 33.3C16.7 30.7 33.3 25.3 50 26.3C66.7 27.3 83.3 34.7 100 34.8C116.7 35 133.3 28 150 27C166.7 26 183.3 31 200 34.3C216.7 37.7 233.3 39.3 250 41C266.7 42.7 283.3 44.3 300 41.5C316.7 38.7 333.3 31.3 350 30.3C366.7 29.3 383.3 34.7 400 35.8C416.7 37 433.3 34 450 31.5C466.7 29 483.3 27 500 26.3C516.7 25.7 533.3 26.3 550 27.5C566.7 28.7 583.3 30.3 600 33.5C616.7 36.7 633.3 41.3 650 39.7C666.7 38 683.3 30 700 30.2C716.7 30.3 733.3 38.7 750 39.7C766.7 40.7 783.3 34.3 800 31.5C816.7 28.7 833.3 29.3 850 32.2C866.7 35 883.3 40 891.7 42.5L900 45L900 0L891.7 0C883.3 0 866.7 0 850 0C833.3 0 816.7 0 800 0C783.3 0 766.7 0 750 0C733.3 0 716.7 0 700 0C683.3 0 666.7 0 650 0C633.3 0 616.7 0 600 0C583.3 0 566.7 0 550 0C533.3 0 516.7 0 500 0C483.3 0 466.7 0 450 0C433.3 0 416.7 0 400 0C383.3 0 366.7 0 350 0C333.3 0 316.7 0 300 0C283.3 0 266.7 0 250 0C233.3 0 216.7 0 200 0C183.3 0 166.7 0 150 0C133.3 0 116.7 0 100 0C83.3 0 66.7 0 50 0C33.3 0 16.7 0 8.3 0L0 0Z" fill="#00c4f0"></path><path d="M0 19L8.3 18.5C16.7 18 33.3 17 50 18.5C66.7 20 83.3 24 100 24.7C116.7 25.3 133.3 22.7 150 20.5C166.7 18.3 183.3 16.7 200 14.8C216.7 13 233.3 11 250 9.8C266.7 8.7 283.3 8.3 300 11.3C316.7 14.3 333.3 20.7 350 20.8C366.7 21 383.3 15 400 13.5C416.7 12 433.3 15 450 17.5C466.7 20 483.3 22 500 24C516.7 26 533.3 28 550 25.2C566.7 22.3 583.3 14.7 600 13.2C616.7 11.7 633.3 16.3 650 17.5C666.7 18.7 683.3 16.3 700 16.3C716.7 16.3 733.3 18.7 750 19C766.7 19.3 783.3 17.7 800 18.8C816.7 20 833.3 24 850 24C866.7 24 883.3 20 891.7 18L900 16L900 0L891.7 0C883.3 0 866.7 0 850 0C833.3 0 816.7 0 800 0C783.3 0 766.7 0 750 0C733.3 0 716.7 0 700 0C683.3 0 666.7 0 650 0C633.3 0 616.7 0 600 0C583.3 0 566.7 0 550 0C533.3 0 516.7 0 500 0C483.3 0 466.7 0 450 0C433.3 0 416.7 0 400 0C383.3 0 366.7 0 350 0C333.3 0 316.7 0 300 0C283.3 0 266.7 0 250 0C233.3 0 216.7 0 200 0C183.3 0 166.7 0 150 0C133.3 0 116.7 0 100 0C83.3 0 66.7 0 50 0C33.3 0 16.7 0 8.3 0L0 0Z" fill="#00aeff"></path></svg>