<svg id="visual" viewBox="0 0 960 320" width="960" height="320" xmlns="http://www.w3.org/2000/svg" xmlns:xlink="http://www.w3.org/1999/xlink" version="1.1"><rect x="0" y="0" width="960" height="320" fill="#FFFFFF"></rect><path d="M0 110L20 109.2C40 108.3 80 106.7 120 105.5C160 104.3 200 103.7 240 102.8C280 102 320 101 360 99.3C400 97.7 440 95.3 480 95.2C520 95 560 97 600 97.2C640 97.3 680 95.7 720 97.5C760 99.3 800 104.7 840 104.3C880 104 920 98 940 95L960 92L960 0L940 0C920 0 880 0 840 0C800 0 760 0 720 0C680 0 640 0 600 0C560 0 520 0 480 0C440 0 400 0 360 0C320 0 280 0 240 0C200 0 160 0 120 0C80 0 40 0 20 0L0 0Z" fill="#ffffff"></path><path d="M0 104L20 104.7C40 105.3 80 106.7 120 106.7C160 106.7 200 105.3 240 102.3C280 99.3 320 94.7 360 95C400 95.3 440 100.7 480 103.3C520 106 560 106 600 104.7C640 103.3 680 100.7 720 98C760 95.3 800 92.7 840 94C880 95.3 920 100.7 940 103.3L960 106L960 0L940 0C920 0 880 0 840 0C800 0 760 0 720 0C680 0 640 0 600 0C560 0 520 0 480 0C440 0 400 0 360 0C320 0 280 0 240 0C200 0 160 0 120 0C80 0 40 0 20 0L0 0Z" fill="#d7d7ff"></path><path d="M0 49L20 52C40 55 80 61 120 65.2C160 69.3 200 71.7 240 69.3C280 67 320 60 360 58C400 56 440 59 480 60.7C520 62.3 560 62.7 600 63.7C640 64.7 680 66.3 720 65.5C760 64.7 800 61.3 840 58.2C880 55 920 52 940 50.5L960 49L960 0L940 0C920 0 880 0 840 0C800 0 760 0 720 0C680 0 640 0 600 0C560 0 520 0 480 0C440 0 400 0 360 0C320 0 280 0 240 0C200 0 160 0 120 0C80 0 40 0 20 0L0 0Z" fill="#acb0ff"></path><path d="M0 49L20 47.8C40 46.7 80 44.3 120 46.2C160 48 200 54 240 54.2C280 54.3 320 48.7 360 48.7C400 48.7 440 54.3 480 53C520 51.7 560 43.3 600 39.3C640 35.3 680 35.7 720 36.3C760 37 800 38 840 41.8C880 45.7 920 52.3 940 55.7L960 59L960 0L940 0C920 0 880 0 840 0C800 0 760 0 720 0C680 0 640 0 600 0C560 0 520 0 480 0C440 0 400 0 360 0C320 0 280 0 240 0C200 0 160 0 120 0C80 0 40 0 20 0L0 0Z" fill="#788bff"></path><path d="M0 37L20 34.7C40 32.3 80 27.7 120 24.3C160 21 200 19 240 19.2C280 19.3 320 21.7 360 24.5C400 27.3 440 30.7 480 31.2C520 31.7 560 29.3 600 29.2C640 29 680 31 720 31.7C760 32.3 800 31.7 840 32.3C880 33 920 35 940 36L960 37L960 0L940 0C920 0 880 0 840 0C800 0 760 0 720 0C680 0 640 0 600 0C560 0 520 0 480 0C440 0 400 0 360 0C320 0 280 0 240 0C200 0 160 0 120 0C80 0 40 0 20 0L0 0Z" fill="#0069ff"></path></svg>